<?xml version="1.0" encoding="utf-8"?>
<!-- Generator: Adobe Illustrator 27.1.1, SVG Export Plug-In . SVG Version: 6.00 Build 0)  -->
<svg version="1.1" id="Capa_1" xmlns="http://www.w3.org/2000/svg" xmlns:xlink="http://www.w3.org/1999/xlink" x="0px" y="0px"
	 viewBox="0 0 32 32" style="enable-background:new 0 0 32 32;" xml:space="preserve">
<style type="text/css">
	.st0{fill:#EAEAEA;}
</style>
<g id="Layer_2">
	<path class="st0" d="M20.9,17c-0.5,2.7-3.2,4.5-5.9,3.9c-2-0.4-3.5-1.9-3.9-3.9h-9C2.6,24.7,9.3,30.5,17,30c7-0.5,12.5-6,13-13
		H20.9z"/>
	<path class="st0" d="M11.1,15c0.5-2.7,3.2-4.5,5.9-3.9c2,0.4,3.5,1.9,3.9,3.9h9C29.4,7.3,22.7,1.5,15,2c-7,0.5-12.5,6-13,13H11.1z"
		/>
	<circle class="st0" cx="16" cy="16" r="3"/>
</g>
</svg>
