<?xml version="1.0" encoding="utf-8"?>
<!-- Generator: Adobe Illustrator 27.1.1, SVG Export Plug-In . SVG Version: 6.00 Build 0)  -->
<svg version="1.1" xmlns="http://www.w3.org/2000/svg" xmlns:xlink="http://www.w3.org/1999/xlink" x="0px" y="0px"
	 viewBox="0 0 32 32" style="enable-background:new 0 0 32 32;" xml:space="preserve">
<style type="text/css">
	.st0{display:none;}
	.st1{display:inline;}
	.st2{fill:#323232;}
	.st3{fill:#46B5F9;}
	.st4{fill:#9CE3FB;}
	.st5{fill:#E6F8FE;}
	.st6{fill:#F4F4F4;}
	.st7{fill:#A7DFFC;}
	.st8{fill:#D9F2F9;}
</style>
<g id="Capa_1" class="st0">
	<g class="st1">
		<circle class="st2" cx="16" cy="16" r="13.4"/>
		<g>
			<circle class="st3" cx="16" cy="16" r="9.5"/>
			<path class="st4" d="M8.2,17.7c0-5.2,4.2-9.5,9.5-9.5c2.3,0,4.4,0.8,6,2.2c-1.7-2.3-4.5-3.9-7.6-3.9c-5.2,0-9.5,4.2-9.5,9.5
				c0,2.9,1.3,5.6,3.5,7.3C8.8,21.7,8.2,19.8,8.2,17.7z"/>
		</g>
		<circle class="st5" cx="11.9" cy="12.5" r="2.3"/>
	</g>
</g>
<g id="Capa_1_copia">
	<circle class="st6" cx="16" cy="16" r="13.4"/>
	<circle class="st7" cx="16" cy="16" r="9.5"/>
	<path class="st8" d="M8.1,17.7c0-5.2,4.2-9.5,9.5-9.5c2.3,0,4.4,0.8,6,2.2c-1.7-2.3-4.5-3.9-7.6-3.9c-5.2,0-9.5,4.2-9.5,9.5
		c0,2.9,1.3,5.6,3.5,7.3C8.7,21.7,8.1,19.8,8.1,17.7z"/>
	<circle class="st5" cx="11.9" cy="12.5" r="2.3"/>
</g>
</svg>
