<?xml version="1.0" encoding="utf-8"?>
<!-- Generator: Adobe Illustrator 27.1.1, SVG Export Plug-In . SVG Version: 6.00 Build 0)  -->
<svg version="1.1" id="Capa_1" xmlns="http://www.w3.org/2000/svg" xmlns:xlink="http://www.w3.org/1999/xlink" x="0px" y="0px"
	 viewBox="0 0 512 512" style="enable-background:new 0 0 512 512;" xml:space="preserve">
<style type="text/css">
	.st0{fill:#299961;}
	.st1{fill:#30B271;}
	.st2{fill:#32C17E;}
	.st3{fill:#ED5564;}
	.st4{fill:#E6E9ED;}
	.st5{fill:#434A54;}
	.st6{opacity:0.2;fill:#FFFFFF;enable-background:new    ;}
	.st7{opacity:0.1;enable-background:new    ;}
</style>
<g>
	<path class="st0" d="M407.2,388.7V214L256,126.7L104.8,214v174.6L256,476L407.2,388.7z"/>
	<path class="st1" d="M407.2,388.7L256,476V301.4L407.2,214V388.7z"/>
	<path class="st2" d="M104.8,388.7L256,476V301.4L104.8,214V388.7z"/>
	<g>
		<path class="st3" d="M364.5,108c-5.9-14-14.4-26.6-25.2-37.4c-10.8-10.8-23.4-19.3-37.4-25.2c-14.5-6.1-30-9.3-45.9-9.3
			c-15.9,0-31.3,3.1-45.9,9.3c-14,5.9-26.6,14.4-37.4,25.2c-10.8,10.8-19.3,23.4-25.2,37.4c-6.1,14.5-9.3,30-9.3,45.9
			c0,15.9,3.1,31.3,9.3,45.9c5.9,14,14.4,26.6,25.2,37.4c10.8,10.8,23.4,19.3,37.4,25.2c14.5,6.1,30,9.3,45.9,9.3
			c15.9,0,31.3-3.1,45.9-9.3c14-5.9,26.6-14.4,37.4-25.2c10.8-10.8,19.3-23.4,25.2-37.4c6.1-14.5,9.3-30,9.3-45.9
			C373.8,137.9,370.7,122.5,364.5,108z"/>
		<path class="st4" d="M138.2,157.1c0.4,14.7,3.5,29,9.2,42.6c5.9,14,14.4,26.6,25.2,37.4c10.8,10.8,23.4,19.3,37.4,25.2
			c14.5,6.1,30,9.3,45.9,9.3c15.9,0,31.3-3.1,45.9-9.3c14-5.9,26.6-14.4,37.4-25.2c10.8-10.8,19.3-23.4,25.2-37.4
			c5.7-13.5,8.8-27.8,9.2-42.6H138.2z"/>
		<path class="st5" d="M373.2,165.4c0.4-3.8,0.6-7.7,0.6-11.6c0-4.4-0.2-8.7-0.7-13c-5.9,0.9-14.3,2.1-24.8,3.2
			c-20.1,2.2-52.4,4.9-92.3,4.9c-39.8,0-72.1-2.6-92.2-4.9c-10.6-1.2-19-2.3-24.8-3.2c-0.5,4.3-0.7,8.6-0.7,13
			c0,3.9,0.2,7.8,0.6,11.6c19.1,2.9,61.2,8,117.2,8S354.1,168.3,373.2,165.4z"/>
		<path class="st4" d="M280.5,158.7c0,13.6-11,24.5-24.5,24.5c-13.6,0-24.5-11-24.5-24.5c0-13.6,11-24.5,24.5-24.5
			C269.6,134.2,280.5,145.2,280.5,158.7z"/>
		<path class="st5" d="M256,114.5c-24.4,0-44.2,19.8-44.2,44.2s19.8,44.2,44.2,44.2c24.4,0,44.2-19.8,44.2-44.2
			C300.2,134.4,280.4,114.5,256,114.5z M256,178.4c-10.8,0-19.6-8.8-19.6-19.6c0-10.8,8.8-19.6,19.6-19.6c10.8,0,19.6,8.8,19.6,19.6
			C275.6,169.5,266.8,178.4,256,178.4z"/>
		<path class="st6" d="M364.5,108c-5.9-14-14.4-26.6-25.2-37.4c-10.8-10.8-23.4-19.3-37.4-25.2c-14.5-6.1-30-9.3-45.9-9.3
			c-1.6,0-3.3,0-4.9,0.1c14.2,0.6,27.9,3.6,40.9,9.2c14,5.9,26.6,14.4,37.4,25.2c10.8,10.8,19.3,23.4,25.2,37.4
			c6.1,14.5,9.3,30,9.3,45.9c0,15.9-3.1,31.3-9.3,45.9c-5.9,14-14.4,26.6-25.2,37.4c-10.8,10.8-23.4,19.3-37.4,25.2
			c-13,5.5-26.8,8.6-40.9,9.2c1.6,0.1,3.3,0.1,4.9,0.1c15.9,0,31.3-3.1,45.9-9.3c14-5.9,26.6-14.4,37.4-25.2
			c10.8-10.8,19.3-23.4,25.2-37.4c6.1-14.5,9.3-30,9.3-45.9C373.8,137.9,370.7,122.5,364.5,108z"/>
		<path class="st7" d="M147.5,199.7c5.9,14,14.4,26.6,25.2,37.4c10.8,10.8,23.4,19.3,37.4,25.2c14.5,6.1,30,9.3,45.9,9.3
			c1.6,0,3.3,0,4.9-0.1c-14.2-0.6-27.9-3.7-40.9-9.2c-14-5.9-26.6-14.4-37.4-25.2c-10.8-10.8-19.3-23.4-25.2-37.4
			c-6.1-14.5-9.3-30-9.3-45.9c0-15.9,3.1-31.3,9.3-45.9c5.9-14,14.4-26.6,25.2-37.4c10.8-10.8,23.4-19.3,37.4-25.2
			c13-5.5,26.8-8.6,40.9-9.2c-1.6-0.1-3.3-0.1-4.9-0.1c-15.9,0-31.3,3.1-45.9,9.3c-14,5.9-26.6,14.4-37.4,25.2
			c-10.8,10.8-19.3,23.4-25.2,37.4c-6.1,14.5-9.3,30-9.3,45.9C138.2,169.7,141.3,185.1,147.5,199.7z"/>
	</g>
</g>
</svg>
